<mxfile host="app.diagrams.net" modified="2023-07-04T05:17:45.395Z" agent="Mozilla/5.0 (Macintosh; Intel Mac OS X 10_15_7) AppleWebKit/537.36 (KHTML, like Gecko) Chrome/114.0.0.0 Safari/537.36" version="21.5.2" etag="S4wkyWLVULjIk0youOnr" type="github">
  <diagram name="ページ1" id="A-aV3AcrUMxkYcAU4oyE">
    <mxGraphModel>
      <root>
        <mxCell id="0" />
        <mxCell id="1" parent="0" />
      </root>
    </mxGraphModel>
  </diagram>
</mxfile>
